<svg viewBox="0 0 64 64" fill="none" xmlns="http://www.w3.org/2000/svg">
<rect width="64" height="64" fill="#1C2A5F"/>
<path d="M23.1574 2.586V2.62485L23.1872 2.64889C23.1971 2.73709 23.2234 2.82235 23.2646 2.89979C23.3059 2.97723 23.3611 3.04534 23.4273 3.1002C23.4217 3.11886 23.4221 3.13895 23.4285 3.15735C23.4348 3.17575 23.4467 3.19142 23.4624 3.20192C23.4892 3.37227 23.5717 3.52735 23.6955 3.64028C24.5457 5.35671 25.3836 7.07869 26.2566 8.78218C26.4687 9.19464 26.4932 9.43324 26.0988 9.74397C25.3454 10.3493 24.7267 11.1214 24.2863 12.006C24.0707 12.4314 23.8428 12.4555 23.4519 12.3501C20.8049 11.638 18.151 10.9481 15.5005 10.2508C15.2797 10.1934 15.0062 10.0011 14.8923 10.3691C14.7783 10.7372 15.1131 10.7557 15.32 10.8371C17.7986 11.8174 20.272 12.818 22.7647 13.7521C23.3046 13.9555 23.4852 14.2034 23.2906 14.773C23.1355 15.2115 23.0837 15.6831 23.1399 16.1473C23.224 16.8169 22.8944 16.9519 22.3808 17.0555C19.8461 17.5721 17.3154 18.1097 14.7888 18.6683C14.5136 18.7294 13.9737 18.6091 14.0281 19.1011C14.0859 19.632 14.5785 19.3157 14.8432 19.2861C17.4673 19.0734 20.0792 18.8496 22.6894 18.5518C23.3081 18.4815 23.536 18.6998 23.6167 19.2639C23.6683 19.7411 23.7515 20.2139 23.8656 20.6788C24.0637 20.0315 24.728 19.4636 24.1285 18.6591C24.6667 18.6424 24.984 18.4741 24.8981 17.836C24.8577 17.5512 24.8157 17.4013 24.5212 17.4568C24.2267 17.5123 24.104 17.3847 24.1022 17.0444C24.1022 16.6744 24.2617 16.5931 24.544 16.6615C25.0576 16.7854 25.0523 16.3693 25.1259 16.0511C25.2469 15.5388 24.8507 15.7015 24.6369 15.6812C24.3722 15.6442 24.2407 15.5739 24.3143 15.2447C24.3774 14.9543 24.4458 14.7804 24.7806 14.8655C25.0628 14.9358 25.3521 15.217 25.6238 14.7379C25.8955 14.2589 25.9095 13.9851 25.3608 13.7872C25.1382 13.7058 24.7508 13.6799 24.9997 13.1972C25.175 12.8643 25.296 12.8513 25.5922 13.0437C25.8411 13.2064 26.0462 13.6263 26.4231 13.4043C26.9297 13.1047 26.9052 12.8162 26.4845 12.3704C26.2811 12.154 25.6483 12.0967 26.076 11.5159C26.2391 11.2921 26.3775 11.1959 26.5791 11.4715C26.7246 11.6713 26.9297 11.8303 27.0524 12.043C27.3364 12.5295 27.5783 12.228 27.843 12.043C28.2549 11.7508 27.8658 11.5899 27.7466 11.4012C27.6232 11.2102 27.4817 11.0329 27.3241 10.8722C27.0665 10.6096 27.1278 10.4413 27.396 10.2267C27.701 9.98257 27.8044 10.1731 27.9342 10.4117C28.0716 10.6198 28.1969 10.8366 28.3093 11.0609C28.4951 11.5362 28.744 11.4919 29.1156 11.2828C29.596 11.0147 29.1788 10.7853 29.1156 10.5597C29.0421 10.3099 28.9328 10.0735 28.7913 9.85865C28.5933 9.53682 28.6879 9.37775 29 9.23533C29.3505 9.07997 29.4207 9.28897 29.4995 9.55531C29.5889 9.86419 29.7134 10.1638 29.787 10.4801C29.8606 10.7964 30.0044 10.9129 30.3462 10.85C30.7441 10.7687 30.7073 10.5412 30.6495 10.2471C30.6092 9.92614 30.5506 9.60805 30.4742 9.29452C30.3234 8.82287 30.5706 8.73964 30.9159 8.6897C31.3804 8.61756 31.1929 8.98194 31.2174 9.18354C31.2542 9.50353 31.2437 9.82906 31.2858 10.149C31.3138 10.3617 31.2069 10.6836 31.6364 10.641C31.9765 10.6059 32.1623 10.5282 32.1149 10.1194C32.0816 9.77727 32.1254 9.42584 32.1009 9.08181C32.0764 8.77108 32.1272 8.61387 32.4743 8.62311C32.8214 8.63236 32.9476 8.75258 32.888 9.11696C32.8284 9.48133 32.8038 9.8568 32.753 10.2156C32.7092 10.5264 32.7881 10.6947 33.1194 10.7021C33.3911 10.7021 33.6453 10.7779 33.6926 10.3562C33.7347 10.0159 33.8766 9.68849 33.917 9.35001C33.9608 8.98009 34.0782 8.9098 34.4271 9.02078C34.8039 9.13915 34.7987 9.32596 34.6655 9.62745C34.5455 9.87364 34.4446 10.1297 34.364 10.3932C34.3061 10.6096 33.9993 10.8852 34.4621 11.0461C34.7917 11.1626 35.0757 11.3032 35.2194 10.7945C35.3191 10.5376 35.4326 10.2869 35.5595 10.0436C35.6734 9.76617 35.7961 9.63485 36.0994 9.8346C36.4026 10.0344 36.4815 10.1786 36.2361 10.469C36.1137 10.6019 36.0146 10.7565 35.9434 10.9259C35.854 11.1682 35.3596 11.342 35.8259 11.7046C36.2098 12.0042 36.5271 12.13 36.8163 11.5899C36.929 11.4188 37.0551 11.2579 37.1932 11.109C37.386 10.8593 37.5315 10.9999 37.6612 11.1793C37.7664 11.3254 38.0013 11.429 37.7647 11.6824C37.4982 11.9653 36.9496 12.1318 37.0267 12.5443C37.0915 12.892 37.5368 13.1491 37.7752 13.4691C38.3011 14.1886 38.6517 14.9839 38.6517 15.9401C38.4571 15.2003 37.8856 14.9895 37.3036 14.8008C37.0797 14.7135 36.8848 14.5593 36.7427 14.3569C35.9728 13.4233 34.8985 12.8291 33.7329 12.6922C33.5453 12.6663 33.2491 12.5239 33.179 12.8532C33.1089 13.1824 33.342 13.2712 33.5962 13.3637C34.8232 13.8131 35.719 14.712 36.5148 15.7478C36.5588 15.7868 36.5879 15.8413 36.5966 15.9012C36.6053 15.961 36.593 16.0222 36.5622 16.0733C36.3588 16.1713 36.2659 15.9568 36.1379 15.8662C35.7876 15.5873 35.4039 15.3585 34.9968 15.1855C34.1448 14.8822 33.7995 15.1393 33.8276 16.0641C33.8447 16.4326 33.8845 16.7996 33.9468 17.1627C34.0782 18.0265 33.9468 18.2263 33.1316 18.1393C33.0061 18.1164 32.8771 18.1307 32.7588 18.1807C32.6406 18.2306 32.5378 18.3143 32.462 18.4223C32.365 18.5172 32.2955 18.6391 32.2613 18.774C32.2272 18.9088 32.2299 19.0511 32.2692 19.1844C32.3849 19.5302 32.6741 19.3379 32.8915 19.3841C33.3841 19.4895 33.8784 19.0882 34.3885 19.4378C34.5971 19.5802 34.7391 19.3434 34.7251 19.0956C34.704 18.635 34.6357 18.1708 34.6532 17.7139C34.669 17.3163 34.6339 16.7891 35.1125 16.6763C35.591 16.5635 35.9767 16.8206 36.2203 17.331C36.5008 17.8781 36.8086 18.4091 37.1424 18.9217C37.246 19.0708 37.3072 19.2479 37.3186 19.4324C37.3301 19.6169 37.2915 19.801 37.2072 19.963C36.9794 20.4365 36.7427 20.9063 36.5481 21.3928C36.152 22.386 35.428 22.7411 34.4569 22.6875C33.9748 22.6635 33.4927 22.6986 33.0107 22.6746C32.1305 22.6267 31.2556 22.8442 30.4882 23.3016C30.22 23.4569 29.9448 23.5975 29.6731 23.7455C28.2392 24.5205 28.2322 24.5297 27.091 23.3404C26.7544 22.989 26.4599 23.1555 26.1409 23.3219C25.8219 23.4884 25.6851 23.6401 25.8482 24.0618C25.9603 24.3484 25.9831 24.6388 26.2303 24.883C26.5967 25.2529 26.4792 25.695 26.2198 26.0797C26.0692 26.2789 25.9733 26.5179 25.9424 26.7706C25.9115 27.0233 25.9468 27.2801 26.0445 27.5131C26.183 27.8738 26.0831 28.2382 25.9849 28.5988C25.8867 28.9595 25.7342 29.2998 25.9849 29.6957C26.8614 29.1611 26.9192 28.216 27.1278 27.3374C27.1499 27.1774 27.1639 27.0163 27.1699 26.8547C27.2821 25.9632 27.3364 26.0075 28.1673 26.026C29.9097 26.063 31.561 26.6179 33.2508 26.9028C33.9625 27.0211 34.7671 27.06 35.3351 27.4576C35.903 27.8553 35.861 28.8134 36.1572 29.4922C36.9127 31.2216 37.1126 33.1193 37.5841 34.9337C37.7349 35.5127 37.6525 36.1286 37.6104 36.7278C37.4842 37.2698 37.0723 37.1607 36.7147 37.1607H3.77333C3.22816 37.1607 2.68125 37.1792 2.13608 37.1884L1.97656 37.0386C1.98708 36.739 2.00636 36.4393 2.00636 36.1397C2.00636 25.1962 2.00227 14.2515 1.99409 3.3055C1.99409 2.68773 2.11855 2.49352 2.74085 2.49537C9.30562 2.52127 15.8704 2.51202 22.4369 2.51572C22.6806 2.51942 22.919 2.56381 23.1574 2.586ZM32.0974 21.0728L32.0886 21.058C32.3323 21.243 31.866 21.9606 32.4217 21.759C33.3069 21.439 34.1519 21.6388 35.0143 21.685C35.4052 21.7072 35.5402 21.5574 35.4596 21.1616C35.3666 20.6714 34.4726 19.8391 34.0081 19.7799C33.1316 19.669 32.3323 19.7892 31.7135 20.5494C31.5785 20.7158 31.2875 20.7954 31.5014 21.0802C31.6802 21.3262 31.8993 21.3428 32.0957 21.0728H32.0974ZM26.0568 17.1405C25.9989 17.2663 25.9481 17.3902 25.8815 17.5105C25.2837 18.6628 24.6544 19.8003 24.3196 21.0839C24.1766 21.5199 24.0928 21.9751 24.0707 22.436C24.0707 22.8836 24.6369 23.5217 25.1224 23.6049C25.7307 23.7085 25.6168 23.1259 25.7202 22.817C26.1251 21.5981 26.4775 20.3589 26.8596 19.1307C26.9157 18.9458 26.9069 18.6702 27.1541 18.6461C28.0534 18.5555 28.7668 18.1042 29.4575 17.5142C30.0307 17.024 30.6652 16.4469 31.4734 17.1313C31.4909 17.1445 31.5112 17.1531 31.5326 17.1563C31.5539 17.1595 31.5757 17.1573 31.5961 17.1498C31.8019 17.0408 31.9792 16.8801 32.1122 16.6817C32.2451 16.4833 32.3298 16.2534 32.3586 16.0123C32.4129 15.6313 32.3393 15.2891 31.9081 15.1356C31.3258 14.9283 30.6998 14.8994 30.1026 15.0523C29.8904 15.1023 29.6783 15.167 29.6345 15.4574C29.6121 15.5754 29.6315 15.698 29.689 15.802C29.7465 15.9059 29.8381 15.9841 29.9465 16.0215C29.5065 16.3674 29.0701 16.7059 28.6371 17.0592C28.4425 17.2201 28.2444 17.2978 28.0463 17.1257C27.8009 16.9149 28.0621 16.7558 28.1463 16.6042C28.6152 15.7922 29.2463 15.0979 29.9956 14.5696C30.6673 14.0928 31.3982 13.7163 32.1675 13.4506C32.3218 13.3969 32.6058 13.4025 32.4568 13.0585C32.2815 12.6645 31.6381 12.3186 31.2437 12.4758C29.1665 13.3026 27.1313 14.1997 25.6658 16.0918C25.4783 16.3341 25.2609 16.5505 25.3468 16.8631C25.4397 17.2164 25.8043 17.0018 26.0568 17.1405Z" fill="white"/>
<path d="M62.3084 61.7305C62.3189 61.5012 62.3365 61.2718 62.3365 61.0406C62.3365 41.6247 62.3435 22.2101 62.3575 2.7966C62.3575 2.05676 62.1436 1.94948 61.5178 1.94948C52.4025 1.96983 43.2872 1.94948 34.1719 1.97723C33.5619 1.97723 33.3217 1.8718 33.3883 1.156C33.4935 0.0221952 33.4462 0.0166458 34.5155 0.0166458C44.1099 0.0166458 53.7044 0.0110976 63.2988 0C63.8948 0 64 0.168314 64 0.765736C63.9836 21.5195 63.9795 42.2746 63.9877 63.0308C63.9877 63.9834 63.9877 63.9834 63.0902 63.9834C42.3237 63.9834 21.5577 63.9889 0.79233 64C0.177047 64 0 63.8742 0 63.188C0.0210353 42.3849 0.0210353 21.583 0 0.782382C0 0.140569 0.16127 1.80629e-06 0.748507 0.00185141C7.51838 0.0252797 14.2871 0.0252797 21.0546 0.00185141C21.6085 0.00185141 21.9504 0.125773 22.1537 0.693602C22.3276 1.11457 22.5255 1.52408 22.7462 1.91989C22.485 1.93284 22.2203 1.95688 21.9609 1.95688C15.3681 1.95688 8.77349 1.96798 2.18066 1.94394C1.59869 1.94394 1.45319 2.09375 1.45319 2.70967C1.47072 22.1712 1.47072 41.6327 1.45319 61.0943C1.45319 61.6751 1.54785 61.8804 2.15437 61.8804C22.0012 61.8606 41.848 61.852 61.6949 61.8545C61.9122 61.8545 62.1542 61.9932 62.3084 61.7305Z" fill="white"/>
<path d="M51.5703 49.8965C50.8253 49.8965 50.0803 49.915 49.337 49.8965C48.9777 49.8836 48.7813 49.989 48.6621 50.3663C48.2309 51.7202 47.7506 53.0556 47.3281 54.4132C47.0144 55.4176 47.2037 55.658 48.2046 55.6617C48.4448 55.6617 48.6849 55.6617 48.9268 55.6617C49.2371 55.6617 49.2634 55.8929 49.2564 56.1389C49.2494 56.3849 49.2055 56.5902 48.8883 56.5699C47.3609 56.4589 45.8281 56.4589 44.3008 56.5699C43.9818 56.5958 43.9397 56.4219 43.9397 56.1519C43.9397 55.8818 43.9695 55.597 44.3148 55.6673C45.6173 55.904 46.0573 55.0255 46.4552 53.9564C47.9189 50.0038 49.3055 46.0216 50.692 42.0394C50.8393 41.6177 51.0742 41.1941 50.7744 40.7243C50.5816 40.421 50.8621 40.3803 51.0321 40.3174C51.6541 40.0889 52.2208 39.7189 52.6921 39.2335C53.0585 38.8636 53.1549 39.0227 53.2811 39.437C54.1979 42.4223 55.1182 45.4057 56.0631 48.3817C56.6801 50.3256 57.3269 52.2658 57.9913 54.1876C58.3927 55.3491 58.8292 55.6414 60.0019 55.6673C60.3157 55.6673 60.619 55.6247 60.6207 56.1352C60.6225 56.6457 60.3104 56.5921 60.0019 56.5699C58.2983 56.4663 56.5905 56.4663 54.8868 56.5699C54.5888 56.5847 54.3802 56.581 54.361 56.1704C54.3417 55.7598 54.4889 55.6617 54.8588 55.6562C55.8702 55.6414 55.9964 55.4583 55.7055 54.4095C55.3303 53.0593 54.9149 51.7202 54.5345 50.3719C54.4381 50.0297 54.2803 49.891 53.9297 49.9021C53.1427 49.928 52.3521 49.9113 51.5668 49.9113L51.5703 49.8965ZM51.6053 49.0901C52.2837 49.0901 52.9621 49.079 53.6405 49.0901C53.9806 49.0901 54.1296 49.0272 54.0033 48.6203C53.3267 46.4544 52.6659 44.2848 51.998 42.1152C51.9577 41.9858 51.9419 41.8082 51.7981 41.7823C51.5931 41.7472 51.572 41.9673 51.5247 42.1023C50.7604 44.2885 50.0066 46.4784 49.2459 48.6628C49.1109 49.0494 49.2774 49.0919 49.5754 49.0864C50.2485 49.0827 50.9269 49.0882 51.6053 49.0901V49.0901Z" fill="white"/>
<path d="M16.8194 56.5589C15.9429 56.5589 15.0664 56.5422 14.1899 56.5589C13.8394 56.5681 13.7184 56.4405 13.7184 56.0854C13.7184 55.7303 13.8481 55.6248 14.1531 55.6452C14.3283 55.6564 14.5039 55.6564 14.679 55.6452C15.1208 55.6193 15.3294 55.3733 15.2242 54.9053C14.8613 53.3147 14.36 51.761 13.8797 50.211C13.792 49.9262 13.622 49.8837 13.3836 49.8855C11.7849 49.8855 10.1862 49.8966 8.58928 49.8855C8.47007 49.8717 8.35026 49.9052 8.25309 49.9793C8.15593 50.0535 8.08832 50.1631 8.0634 50.2869C7.60238 51.6815 7.11155 53.0613 6.68734 54.4707C6.40336 55.4084 6.59969 55.6415 7.51823 55.6489C7.76014 55.6489 8.00029 55.6489 8.2422 55.6489C8.60681 55.6322 8.59279 55.8856 8.59279 56.1557C8.59279 56.4257 8.50514 56.5737 8.21065 56.5552C6.70489 56.4461 5.19381 56.4461 3.68805 56.5552C3.39531 56.5792 3.2989 56.4535 3.30416 56.1594C3.30942 55.8653 3.30416 55.6359 3.66526 55.647C3.77395 55.647 3.88613 55.6341 3.99306 55.647C4.83623 55.771 5.30602 55.3086 5.58824 54.5373C6.33324 52.4898 7.09227 50.4478 7.82675 48.3984C8.59279 46.2658 9.3413 44.1258 10.0881 41.9858C10.23 41.5808 10.4123 41.1776 10.1634 40.7263C9.98813 40.3989 10.2826 40.3452 10.4719 40.2676C11.0526 40.0529 11.5812 39.7056 12.0198 39.2503C12.3827 38.8508 12.5141 38.9691 12.6561 39.4352C13.6132 42.5475 14.5808 45.6567 15.559 48.7628C16.1357 50.5791 16.7422 52.3862 17.3663 54.1858C17.7747 55.3603 18.1937 55.6378 19.3822 55.6507C19.6959 55.6507 19.9957 55.5952 19.9869 56.1168C19.9782 56.6384 19.6591 56.5589 19.3611 56.5515C18.9229 56.5385 18.4847 56.5127 18.0499 56.5053C17.6152 56.4979 17.219 56.5053 16.8036 56.5053L16.8194 56.5589ZM11.0013 49.0902C11.6797 49.0902 12.3599 49.0791 13.0383 49.0902C13.3748 49.0902 13.5168 49.0421 13.3888 48.6241C12.7087 46.4582 12.0549 44.2831 11.387 42.1116C11.3502 41.9877 11.3414 41.8009 11.1871 41.7861C10.9891 41.7657 10.9628 41.9711 10.9119 42.1116C10.1599 44.2738 9.41667 46.4415 8.65239 48.6C8.51917 48.97 8.59279 49.0994 8.96792 49.092C9.64456 49.0809 10.3229 49.092 11.0013 49.0902Z" fill="white"/>
<path d="M34.6059 55.5989C36.3115 55.6082 38.0171 55.6248 39.7245 55.6248C40.2889 55.6248 40.7114 55.2919 41.0848 54.885C41.8333 54.0637 42.3592 53.0705 42.7974 52.0292C42.8956 51.7998 42.9131 51.4355 43.3233 51.6075C43.7335 51.7795 43.446 52.0495 43.4022 52.2493C43.1322 53.4811 42.8062 54.7019 42.5572 55.9485C42.4608 56.4294 42.2925 56.5737 41.8263 56.5644C39.0262 56.5126 36.2238 56.4806 33.4191 56.4682C32.4568 56.4682 31.4909 56.52 30.5338 56.5496C30.2288 56.5607 29.915 56.6384 29.9238 56.1075C29.9238 55.6692 30.1446 55.6488 30.4672 55.6433C32.0974 55.6119 32.1079 55.6045 32.1272 53.8677C32.1599 50.6124 32.1856 47.3577 32.2043 44.1036C32.2043 43.2269 32.136 42.3521 32.1342 41.4753C32.1342 40.8298 31.8678 40.5357 31.2578 40.5727C31.0176 40.5894 30.7757 40.5727 30.5355 40.5727C30.185 40.5931 30.1026 40.3989 30.0991 40.0622C30.0991 39.6831 30.2744 39.6775 30.5566 39.6794C32.4375 39.6794 34.3201 39.6923 36.2011 39.6794C36.5341 39.6794 36.6866 39.7719 36.6884 40.1362C36.6901 40.5006 36.4798 40.5727 36.1765 40.5801C35.698 40.5931 35.2142 40.4987 34.7409 40.6356C34.2903 40.6671 34.3289 41.0314 34.3201 41.3459C34.2939 42.3816 34.2676 43.4156 34.257 44.4495C34.2237 48.0155 34.2027 51.5816 34.2868 55.1476C34.2956 55.3585 34.2343 55.6655 34.6059 55.5989Z" fill="white"/>
<path d="M23.3315 48.0769C23.3315 45.9757 23.3315 43.8746 23.3315 41.7734C23.3315 40.7783 23.1457 40.6026 22.2184 40.5841C21.8678 40.5841 21.5172 40.5638 21.1666 40.5841C20.816 40.6045 20.7143 40.4454 20.7161 40.094C20.7178 39.7425 20.8686 39.6852 21.1613 39.6871C23.1316 39.6982 25.102 39.6982 27.0723 39.6871C27.3475 39.6871 27.5315 39.7019 27.528 40.0773C27.528 40.4103 27.4597 40.5656 27.0986 40.5915C25.5209 40.7006 25.5209 40.7136 25.4964 42.3838C25.4473 46.4739 25.4549 50.5627 25.5192 54.6504C25.5332 55.4845 25.6804 55.6418 26.4973 55.6529C26.7374 55.6529 26.9794 55.6695 27.2195 55.6529C27.5701 55.6196 27.663 55.7953 27.6595 56.143C27.656 56.4907 27.5631 56.5813 27.2388 56.5629C25.2535 56.4513 23.264 56.4513 21.2788 56.5629C20.9562 56.5813 20.8493 56.45 20.8528 56.1282C20.8563 55.8064 20.9124 55.6362 21.2507 55.6529C21.6224 55.6695 21.9957 55.6639 22.3674 55.6529C23.0826 55.6362 23.3139 55.4106 23.3157 54.6578C23.3262 52.4641 23.3157 50.2705 23.3157 48.0787L23.3315 48.0769Z" fill="white"/>
<path d="M24.3594 2.50977H27.3113C28.733 2.50977 30.1529 2.52456 31.5728 2.50977C32.0075 2.50977 32.1337 2.61334 32.0653 3.09424C31.8813 4.38896 31.7393 5.69848 31.6148 7.0043C31.578 7.39827 31.4693 7.55918 31.0732 7.58508C30.1538 7.63242 29.25 7.85422 28.4052 8.23984C28.1598 8.35266 28.0265 8.32677 27.8688 8.08447C26.7276 6.31255 25.5707 4.54988 24.4225 2.78166C24.3905 2.69424 24.3693 2.60287 24.3594 2.50977V2.50977Z" fill="white"/>
<path d="M49.008 20.044C48.7906 20.2974 48.5575 20.229 48.3331 20.2123C45.8632 19.9922 43.4091 19.7666 40.955 19.5502C40.2819 19.491 39.9821 19.9848 40.2713 20.6488C40.3345 20.7931 40.4028 20.9374 40.4677 21.0835C40.9129 22.1008 40.8007 22.4522 39.8261 22.7629C39.458 22.8794 39.4755 22.9183 39.6087 23.2901C40.0312 24.4239 40.3572 25.5984 40.7254 26.7544C41.7771 30.0836 42.8657 33.387 44.1559 36.6183C44.3452 37.0936 44.2365 37.2287 43.7825 37.1732C43.6301 37.1519 43.4756 37.1519 43.3232 37.1732C42.8517 37.2509 42.6431 37.0493 42.5099 36.5554C41.3056 32.0923 40.1697 27.6144 39.16 23.0977C39.0653 22.6797 39.0776 22.5114 39.5351 22.4022C40.3678 22.2025 40.4519 21.864 39.9523 21.1464C39.7829 20.89 39.692 20.585 39.692 20.2724C39.692 19.9599 39.7829 19.6548 39.9523 19.3985C39.9881 19.3296 40.0438 19.2746 40.1112 19.2413C40.1787 19.2081 40.2544 19.1983 40.3274 19.2135L49.008 20.044Z" fill="white"/>
<path d="M22.6262 0.0166016H28.7615C29.8326 0.0166016 30.9036 0.0258496 31.9747 0.0166016C32.2814 0.0166016 32.4375 0.0905864 32.3568 0.442012C32.3551 0.464787 32.3551 0.487673 32.3568 0.510449C32.2236 1.96979 32.2236 1.96979 30.8072 1.97164C28.751 1.97164 26.6966 1.94944 24.6421 1.98643C24.1004 1.99568 23.7376 1.85881 23.4746 1.34647C23.252 0.91736 22.9628 0.538191 22.6262 0.0166016Z" fill="white"/>
<path d="M44.4338 2.57812L41.3013 6.46229C40.4634 7.49807 39.6342 8.53939 38.784 9.56223C38.5281 9.86926 38.4598 10.0709 38.784 10.4075C39.3275 10.979 39.7078 11.6893 40.0672 12.4032C40.1356 12.5419 40.3389 12.7084 40.0532 12.8453C39.8446 12.947 39.7026 12.9359 39.5834 12.677C39.2027 11.8188 38.6857 11.0356 38.0548 10.3613C37.8795 10.1652 37.8953 10.0357 38.0548 9.84152C40.0251 7.46293 41.9919 5.08064 43.9552 2.69465C44.0411 2.58737 44.1358 2.49304 44.4338 2.57812Z" fill="white"/>
<path d="M48.7279 11.1292C48.5526 11.5712 48.2932 11.5842 48.081 11.6692C45.8741 12.5533 43.6671 13.4393 41.4532 14.3012C41.0342 14.464 40.8081 14.6138 40.9273 15.1724C41.0509 15.8533 41.0722 16.5505 40.9904 17.2384C40.9729 17.4086 41.0675 17.7045 40.731 17.6786C40.475 17.6583 40.3453 17.551 40.3804 17.2365C40.4475 16.4297 40.4044 15.6168 40.2524 14.8228C40.2156 14.6194 40.2331 14.4862 40.454 14.3992C43.1675 13.332 45.8846 12.263 48.7279 11.1292Z" fill="white"/>
<path d="M33.8664 4.97514C33.8664 5.68909 33.6911 6.47886 33.9155 7.09848C34.1644 7.77174 35.0952 7.59418 35.6492 7.9789C35.9033 8.16386 36.1856 8.28593 36.4555 8.4376C36.5747 8.50419 36.7027 8.57262 36.587 8.74464C36.5719 8.77537 36.5508 8.80236 36.525 8.82382C36.4993 8.84529 36.4695 8.86072 36.4377 8.86912C36.4059 8.87752 36.3727 8.87867 36.3404 8.87252C36.3081 8.86636 36.2775 8.85303 36.2504 8.83341C35.4012 8.3097 34.4771 7.93491 33.5141 7.72365C33.3177 7.67926 33.3248 7.52759 33.3283 7.35373C33.3581 5.87405 33.3738 4.40731 33.3984 2.93503C33.3984 2.76671 33.3353 2.52811 33.6122 2.52441C33.9243 2.52441 33.8612 2.78151 33.8629 2.97572C33.8682 3.63787 33.8647 4.30928 33.8664 4.97514Z" fill="white"/>
<path d="M32.0971 21.0727C32.9 20.1479 34.0359 20.0887 34.6898 21.0727C33.7589 20.8655 32.9368 21.1208 32.0884 21.0597L32.0971 21.0727Z" fill="white"/>
</svg>
